<svg width="653" height="653" viewBox="0 0 653 653" fill="none" xmlns="http://www.w3.org/2000/svg">
<mask id="path-1-inside-1_76_341" fill="white">
<path d="M18.2798 318.35C18.2798 360.157 26.4885 401.554 42.4374 440.178C58.3862 478.802 81.7628 513.896 111.232 543.458C140.702 573.019 175.687 596.469 214.191 612.467C252.695 628.466 293.963 636.7 335.64 636.7L335.64 318.35L18.2798 318.35Z"/>
</mask>
<path d="M18.2798 318.35C18.2798 360.157 26.4885 401.554 42.4374 440.178C58.3862 478.802 81.7628 513.896 111.232 543.458C140.702 573.019 175.687 596.469 214.191 612.467C252.695 628.466 293.963 636.7 335.64 636.7L335.64 318.35L18.2798 318.35Z" fill="#004AB9" stroke="white" stroke-width="50" mask="url(#path-1-inside-1_76_341)"/>
<mask id="path-2-inside-2_76_341" fill="white">
<path d="M634.72 318.35C634.72 360.157 626.511 401.554 610.562 440.178C594.614 478.802 571.237 513.896 541.767 543.458C512.298 573.019 477.312 596.469 438.808 612.467C400.305 628.466 359.036 636.7 317.36 636.7L317.36 318.35H634.72Z"/>
</mask>
<path d="M634.72 318.35C634.72 360.157 626.511 401.554 610.562 440.178C594.614 478.802 571.237 513.896 541.767 543.458C512.298 573.019 477.312 596.469 438.808 612.467C400.305 628.466 359.036 636.7 317.36 636.7L317.36 318.35H634.72Z" fill="#009F25" stroke="white" stroke-width="50" mask="url(#path-2-inside-2_76_341)"/>
<mask id="path-3-inside-3_76_341" fill="white">
<path d="M335.64 16.2998C293.963 16.2998 252.695 24.5342 214.191 40.5328C175.687 56.5314 140.702 79.9809 111.232 109.542C81.7628 139.104 58.3862 174.199 42.4374 212.823C26.4885 251.447 18.2798 292.844 18.2798 334.65L335.64 334.65L335.64 16.2998Z"/>
</mask>
<path d="M335.64 16.2998C293.963 16.2998 252.695 24.5342 214.191 40.5328C175.687 56.5314 140.702 79.9809 111.232 109.542C81.7628 139.104 58.3862 174.199 42.4374 212.823C26.4885 251.447 18.2798 292.844 18.2798 334.65L335.64 334.65L335.64 16.2998Z" fill="#D2E500" stroke="white" stroke-width="50" mask="url(#path-3-inside-3_76_341)"/>
<mask id="path-4-inside-4_76_341" fill="white">
<path d="M634.72 334.65C634.72 292.844 626.511 251.447 610.562 212.823C594.614 174.199 571.237 139.104 541.767 109.542C512.298 79.9809 477.312 56.5314 438.808 40.5328C400.305 24.5342 359.036 16.2998 317.36 16.2998L317.36 334.65H634.72Z"/>
</mask>
<path d="M634.72 334.65C634.72 292.844 626.511 251.447 610.562 212.823C594.614 174.199 571.237 139.104 541.767 109.542C512.298 79.9809 477.312 56.5314 438.808 40.5328C400.305 24.5342 359.036 16.2998 317.36 16.2998L317.36 334.65H634.72Z" fill="#CA0000" stroke="white" stroke-width="50" mask="url(#path-4-inside-4_76_341)"/>
<path d="M325.909 39.3636V612.26M608.507 325.816H43.3013M616.44 330.066C616.44 493.227 485.947 625.495 324.977 625.495C164.006 625.495 33.5132 493.227 33.5132 330.066C33.5132 166.905 164.006 34.6367 324.977 34.6367C485.947 34.6367 616.44 166.905 616.44 330.066Z" stroke="black" stroke-width="35"/>
</svg>
